{
  "accessors": [
    {
      "bufferView": 0,
      "componentType": 5123,
      "count": 1068,
      "max": [
        539
      ],
      "min": [
        0
      ],
      "type": "SCALAR"
    },
    {
      "bufferView": 1,
      "componentType": 5126,
      "count": 540,
      "max": [
        9.672994613647461,
        9.67300033569336,
        9.67300033569336
      ],
      "min": [
        -9.673008918762207,
        -9.67300033569336,
        -9.67300033569336
      ],
      "type": "VEC3"
    },
    {
      "bufferView": 2,
      "componentType": 5126,
      "count": 540,
      "max": [
        0.983426570892334,
        0.9834266304969788,
        0.9834266304969788
      ],
      "min": [
        -0.9834265112876892,
        -0.9834266304969788,
        -0.9834266304969788
      ],
      "type": "VEC3"
    },
    {
      "bufferView": 3,
      "componentType": 5126,
      "count": 540,
      "max": [
        1,
        1
      ],
      "min": [
        0,
        0
      ],
      "type": "VEC2"
    },
    {
      "bufferView": 4,
      "componentType": 5123,
      "count": 540,
      "max": [
        0,
        0,
        0,
        0
      ],
      "min": [
        0,
        0,
        0,
        0
      ],
      "type": "VEC4"
    },
    {
      "bufferView": 5,
      "componentType": 5126,
      "count": 540,
      "max": [
        1.0000026226043701,
        0,
        0,
        0
      ],
      "min": [
        0.9999983906745911,
        0,
        0,
        0
      ],
      "type": "VEC4"
    },
    {
      "bufferView": 6,
      "componentType": 5126,
      "count": 1,
      "max": [
        0.07222454994916916,
        0,
        0,
        0,
        0,
        0.07222454994916916,
        0,
        0,
        0,
        0,
        0.07222454994916916,
        0,
        -7.152557373046875e-7,
        0,
        0,
        1
      ],
      "min": [
        0.07222454994916916,
        0,
        0,
        0,
        0,
        0.07222454994916916,
        0,
        0,
        0,
        0,
        0.07222454994916916,
        0,
        -7.152557373046875e-7,
        0,
        0,
        1
      ],
      "type": "MAT4"
    }
  ],
  "asset": {
    "generator": "Khronos Blender glTF 2.0 exporter",
    "version": "2.0"
  },
  "bufferViews": [
    {
      "buffer": 0,
      "byteLength": 2136,
      "byteOffset": 0,
      "target": 34963
    },
    {
      "buffer": 0,
      "byteLength": 6480,
      "byteOffset": 2136,
      "target": 34962
    },
    {
      "buffer": 0,
      "byteLength": 6480,
      "byteOffset": 8616,
      "target": 34962
    },
    {
      "buffer": 0,
      "byteLength": 4320,
      "byteOffset": 15096,
      "target": 34962
    },
    {
      "buffer": 0,
      "byteLength": 4320,
      "byteOffset": 19416,
      "target": 34962
    },
    {
      "buffer": 0,
      "byteLength": 8640,
      "byteOffset": 23736,
      "target": 34962
    },
    {
      "buffer": 0,
      "byteLength": 64,
      "byteOffset": 32376
    }
  ],
  "buffers": [
    {
      "uri": "AppLauncher_3D_data.bin",
      "byteLength": 32440
    }
  ],
  "images": [
    {
      "name": "BrickProject_diffuse",
      "uri": "AppLauncher_3D_img0.png"
    },
    {
      "name": "BrickProject_normal",
      "uri": "AppLauncher_3D_img1.png"
    },
    {
      "name": "BrickProject_metallic",
      "uri": "AppLauncher_3D_img2.png"
    }
  ],
  "materials": [
    {
      "doubleSided": true,
      "emissiveFactor": [
        0.005604652222245932,
        0.005604652222245932,
        0.005604652222245932
      ],
      "name": "BlueMaterial.001",
      "normalTexture": {
        "index": 1
      },
      "pbrMetallicRoughness": {
        "baseColorFactor": [
          0.03614767640829086,
          0.6785541772842407,
          0.7873992919921875,
          1
        ],
        "baseColorTexture": {
          "index": 0
        },
        "metallicRoughnessTexture": {
          "index": 2
        },
        "roughnessFactor": 0.37130799889564514
      }
    }
  ],
  "meshes": [
    {
      "name": "hexasphere.004",
      "primitives": [
        {
          "attributes": {
            "JOINTS_0": 4,
            "NORMAL": 2,
            "POSITION": 1,
            "TEXCOORD_0": 3,
            "WEIGHTS_0": 5
          },
          "indices": 0,
          "material": 0
        }
      ]
    }
  ],
  "nodes": [
    {
      "children": [
        1,
        2
      ],
      "name": "Armature",
      "translation": [
        7.152557373046875e-7,
        0,
        0
      ]
    },
    {
      "mesh": 0,
      "name": "hexasphere.004",
      "scale": [
        0.07222454994916916,
        0.07222454994916916,
        0.07222454994916916
      ],
      "skin": 0,
      "translation": [
        -7.152557373046875e-7,
        0,
        0
      ]
    },
    {
      "name": "Armature_Bone"
    }
  ],
  "samplers": [
    {}
  ],
  "scene": 0,
  "scenes": [
    {
      "name": "Scene",
      "nodes": [
        0
      ]
    }
  ],
  "skins": [
    {
      "inverseBindMatrices": 6,
      "joints": [
        2
      ],
      "skeleton": 0
    }
  ],
  "textures": [
    {
      "sampler": 0,
      "source": 0
    },
    {
      "sampler": 0,
      "source": 1
    },
    {
      "sampler": 0,
      "source": 2
    }
  ]
}